<?xml version="1.0" encoding="utf-8"?>
<!-- Generator: Adobe Illustrator 19.0.0, SVG Export Plug-In . SVG Version: 6.00 Build 0)  -->
<svg version="1.1" xmlns="http://www.w3.org/2000/svg" xmlns:xlink="http://www.w3.org/1999/xlink" x="0px" y="0px"
	 viewBox="0 0 445.2 231.9" style="enable-background:new 0 0 445.2 231.9;" xml:space="preserve">
<style type="text/css">
	.st0{fill:#FFC107;}
	.st1{fill:#007BFF;}
	.st2{fill:#FFFFFF;}
</style>
<g id="Слой_3">
	<g id="XMLID_60_">
		<path id="XMLID_61_" class="st0" d="M21.5,105.6H3V13.2h18.5V105.6z"/>
		<path id="XMLID_63_" class="st0" d="M114.7,105.6H96.2L58.9,42.5l-0.4,0.1v63.1H40V13.2h18.5l37.3,63.1l0.4-0.1v-63h18.5V105.6z"
			/>
		<path id="XMLID_65_" class="st0" d="M163.4,81.1l1.1,5h0.4l1.1-4.9l20.1-68h19.6l-31.4,92.4h-19l-31.4-92.4h19.6L163.4,81.1z"/>
		<path id="XMLID_67_" class="st0" d="M271.5,65h-38.3v26.3H278v14.3h-63.3V13.2h63.2v14.3h-44.6v23.2h38.3V65z"/>
		<path id="XMLID_69_" class="st0" d="M339.3,81.5c0-3.6-1.3-6.4-3.8-8.6s-6.9-4.2-13.2-6.1c-11-3.2-19.3-6.9-24.9-11.3
			c-5.6-4.4-8.4-10.3-8.4-17.9c0-7.6,3.2-13.8,9.7-18.6c6.5-4.8,14.7-7.2,24.7-7.2c10.2,0,18.4,2.7,24.8,8.1
			c6.4,5.4,9.5,12.1,9.3,20l-0.1,0.4h-18c0-4.3-1.4-7.7-4.3-10.4c-2.9-2.6-6.9-4-12-4c-5,0-8.8,1.1-11.5,3.3c-2.7,2.2-4.1,5-4.1,8.4
			c0,3.1,1.4,5.7,4.3,7.7c2.9,2,7.9,4.1,15,6.4c10.2,2.8,17.9,6.6,23.2,11.2c5.2,4.7,7.9,10.8,7.9,18.3c0,7.9-3.1,14.2-9.4,18.7
			S334,107,323.7,107c-10.1,0-18.9-2.6-26.3-7.8c-7.5-5.2-11.1-12.5-10.9-21.8l0.1-0.4h18c0,5.5,1.7,9.5,5,12.1
			c3.4,2.6,8,3.8,14.1,3.8c5,0,8.9-1,11.6-3.1C337.9,87.8,339.3,85,339.3,81.5z"/>
		<path id="XMLID_71_" class="st0" d="M435.7,27.5h-26.2v78.1H391V27.5h-26V13.2h70.7V27.5z"/>
	</g>
	<g id="XMLID_51_">
		<path id="XMLID_52_" class="st0" d="M172.8,227.5h-18.5v-38.4h-37.7v38.4H98v-92.4h18.5v39.7h37.7v-39.7h18.5V227.5z"/>
		<path id="XMLID_54_" class="st0" d="M263.2,135.1v61.3c0,10.4-3.4,18.4-10.3,24c-6.9,5.6-15.8,8.4-26.9,8.4c-11,0-20-2.8-26.8-8.4
			c-6.8-5.6-10.2-13.6-10.2-24v-61.3h18.6v61.3c0,6.1,1.6,10.6,4.9,13.7c3.3,3,7.7,4.5,13.5,4.5c5.8,0,10.3-1.5,13.6-4.5
			c3.3-3,5-7.6,5-13.7v-61.3H263.2z"/>
		<path id="XMLID_56_" class="st0" d="M279.4,227.5v-92.4h31.2c10.9,0,19.4,2.1,25.5,6.3c6.1,4.2,9.1,10.6,9.1,19
			c0,4.3-1.1,8.1-3.4,11.5c-2.3,3.4-5.6,5.9-9.9,7.6c5.5,1.2,9.7,3.7,12.5,7.6c2.8,3.9,4.2,8.4,4.2,13.5c0,8.8-2.9,15.5-8.8,20.1
			c-5.8,4.5-14.1,6.8-24.8,6.8H279.4z M297.9,173.8h13.3c5,0,8.8-1,11.4-3s4-5,4-8.9c0-4.3-1.3-7.4-4-9.5c-2.7-2-6.7-3-12-3h-12.7
			V173.8z M297.9,186.6v26.6H315c4.9,0,8.7-1.1,11.2-3.2c2.6-2.1,3.9-5.3,3.9-9.5c0-4.5-1.1-8-3.3-10.4c-2.2-2.4-5.7-3.6-10.4-3.6
			H297.9z"/>
	</g>
</g>
<g id="Слой_2">
	<g id="XMLID_38_">
		<path id="XMLID_39_" class="st1" d="M26,101.2H7.5V8.8H26V101.2z"/>
		<path id="XMLID_41_" class="st1" d="M119.2,101.2h-18.5L63.4,38.1L63,38.1v63.1H44.5V8.8H63l37.3,63.1l0.4-0.1v-63h18.5V101.2z"/>
		<path id="XMLID_43_" class="st1" d="M167.9,76.7l1.1,5h0.4l1.1-4.9l20.1-68h19.6l-31.4,92.4h-19L128.3,8.8h19.6L167.9,76.7z"/>
		<path id="XMLID_45_" class="st1" d="M276,60.6h-38.3v26.3h44.8v14.3h-63.3V8.8h63.2v14.3h-44.6v23.2H276V60.6z"/>
		<path id="XMLID_47_" class="st1" d="M343.8,77.1c0-3.6-1.3-6.4-3.8-8.6s-6.9-4.2-13.2-6.1c-11-3.2-19.3-6.9-24.9-11.3
			c-5.6-4.4-8.4-10.3-8.4-17.9c0-7.6,3.2-13.8,9.7-18.6c6.5-4.8,14.7-7.2,24.7-7.2c10.2,0,18.4,2.7,24.8,8.1
			c6.4,5.4,9.5,12.1,9.3,20l-0.1,0.4h-18c0-4.3-1.4-7.7-4.3-10.4c-2.9-2.6-6.9-4-12-4c-5,0-8.8,1.1-11.5,3.3c-2.7,2.2-4.1,5-4.1,8.4
			c0,3.1,1.4,5.7,4.3,7.7c2.9,2,7.9,4.1,15,6.4c10.2,2.8,17.9,6.6,23.2,11.2c5.2,4.7,7.9,10.8,7.9,18.3c0,7.9-3.1,14.2-9.4,18.7
			s-14.5,6.9-24.7,6.9c-10.1,0-18.9-2.6-26.3-7.8c-7.5-5.2-11.1-12.5-10.9-21.8l0.1-0.4h18c0,5.5,1.7,9.5,5,12.1
			c3.4,2.6,8,3.8,14.1,3.8c5,0,8.9-1,11.6-3.1C342.4,83.3,343.8,80.6,343.8,77.1z"/>
		<path id="XMLID_49_" class="st1" d="M440.2,23.1H414v78.1h-18.5V23.1h-26V8.8h70.7V23.1z"/>
	</g>
	<g id="XMLID_29_">
		<path id="XMLID_30_" class="st1" d="M177.3,223.1h-18.5v-38.4h-37.7v38.4h-18.5v-92.4h18.5v39.7h37.7v-39.7h18.5V223.1z"/>
		<path id="XMLID_32_" class="st1" d="M267.7,130.6v61.3c0,10.4-3.4,18.4-10.3,24c-6.9,5.6-15.8,8.4-26.9,8.4c-11,0-20-2.8-26.8-8.4
			c-6.8-5.6-10.2-13.6-10.2-24v-61.3h18.6v61.3c0,6.1,1.6,10.6,4.9,13.7c3.3,3,7.7,4.5,13.5,4.5c5.8,0,10.3-1.5,13.6-4.5
			c3.3-3,5-7.6,5-13.7v-61.3H267.7z"/>
		<path id="XMLID_34_" class="st1" d="M283.9,223.1v-92.4h31.2c10.9,0,19.4,2.1,25.5,6.3c6.1,4.2,9.1,10.6,9.1,19
			c0,4.3-1.1,8.1-3.4,11.5c-2.3,3.4-5.6,5.9-9.9,7.6c5.5,1.2,9.7,3.7,12.5,7.6c2.8,3.9,4.2,8.4,4.2,13.5c0,8.8-2.9,15.5-8.8,20.1
			c-5.8,4.5-14.1,6.8-24.8,6.8H283.9z M302.4,169.4h13.3c5,0,8.8-1,11.4-3s4-5,4-8.9c0-4.3-1.3-7.4-4-9.5c-2.7-2-6.7-3-12-3h-12.7
			V169.4z M302.4,182.2v26.6h17.1c4.9,0,8.7-1.1,11.2-3.2c2.6-2.1,3.9-5.3,3.9-9.5c0-4.5-1.1-8-3.3-10.4c-2.2-2.4-5.7-3.6-10.4-3.6
			H302.4z"/>
	</g>
</g>
<g id="Слой_1">
	<g id="XMLID_16_">
		<path id="XMLID_17_" class="st2" d="M31,96.2H12.5V3.8H31V96.2z"/>
		<path id="XMLID_19_" class="st2" d="M124.2,96.2h-18.5L68.4,33.1L68,33.1v63.1H49.5V3.8H68l37.3,63.1l0.4-0.1v-63h18.5V96.2z"/>
		<path id="XMLID_21_" class="st2" d="M172.9,71.7l1.1,5h0.4l1.1-4.9l20.1-68h19.6l-31.4,92.4h-19L133.3,3.8h19.6L172.9,71.7z"/>
		<path id="XMLID_23_" class="st2" d="M281,55.6h-38.3v26.3h44.8v14.3h-63.3V3.8h63.2v14.3h-44.6v23.2H281V55.6z"/>
		<path id="XMLID_25_" class="st2" d="M348.8,72.1c0-3.6-1.3-6.4-3.8-8.6s-6.9-4.2-13.2-6.1c-11-3.2-19.3-6.9-24.9-11.3
			c-5.6-4.4-8.4-10.3-8.4-17.9c0-7.6,3.2-13.8,9.7-18.6c6.5-4.8,14.7-7.2,24.7-7.2c10.2,0,18.4,2.7,24.8,8.1
			c6.4,5.4,9.5,12.1,9.3,20l-0.1,0.4h-18c0-4.3-1.4-7.7-4.3-10.4c-2.9-2.6-6.9-4-12-4c-5,0-8.8,1.1-11.5,3.3c-2.7,2.2-4.1,5-4.1,8.4
			c0,3.1,1.4,5.7,4.3,7.7c2.9,2,7.9,4.1,15,6.4c10.2,2.8,17.9,6.6,23.2,11.2c5.2,4.7,7.9,10.8,7.9,18.3c0,7.9-3.1,14.2-9.4,18.7
			s-14.5,6.9-24.7,6.9c-10.1,0-18.9-2.6-26.3-7.8c-7.5-5.2-11.1-12.5-10.9-21.8l0.1-0.4h18c0,5.5,1.7,9.5,5,12.1
			c3.4,2.6,8,3.8,14.1,3.8c5,0,8.9-1,11.6-3.1C347.4,78.3,348.8,75.6,348.8,72.1z"/>
		<path id="XMLID_27_" class="st2" d="M445.2,18.1H419v78.1h-18.5V18.1h-26V3.8h70.7V18.1z"/>
	</g>
	<g id="XMLID_7_">
		<path id="XMLID_8_" class="st2" d="M182.3,218.1h-18.5v-38.4h-37.7v38.4h-18.5v-92.4h18.5v39.7h37.7v-39.7h18.5V218.1z"/>
		<path id="XMLID_10_" class="st2" d="M272.7,125.6V187c0,10.4-3.4,18.4-10.3,24c-6.9,5.6-15.8,8.4-26.9,8.4c-11,0-20-2.8-26.8-8.4
			c-6.8-5.6-10.2-13.6-10.2-24v-61.3h18.6v61.3c0,6.1,1.6,10.6,4.9,13.7c3.3,3,7.7,4.5,13.5,4.5c5.8,0,10.3-1.5,13.6-4.5
			c3.3-3,5-7.6,5-13.7v-61.3H272.7z"/>
		<path id="XMLID_12_" class="st2" d="M288.9,218.1v-92.4h31.2c10.9,0,19.4,2.1,25.5,6.3c6.1,4.2,9.1,10.6,9.1,19
			c0,4.3-1.1,8.1-3.4,11.5c-2.3,3.4-5.6,5.9-9.9,7.6c5.5,1.2,9.7,3.7,12.5,7.6c2.8,3.9,4.2,8.4,4.2,13.5c0,8.8-2.9,15.5-8.8,20.1
			c-5.8,4.5-14.1,6.8-24.8,6.8H288.9z M307.4,164.4h13.3c5,0,8.8-1,11.4-3s4-5,4-8.9c0-4.3-1.3-7.4-4-9.5c-2.7-2-6.7-3-12-3h-12.7
			V164.4z M307.4,177.2v26.6h17.1c4.9,0,8.7-1.1,11.2-3.2c2.6-2.1,3.9-5.3,3.9-9.5c0-4.5-1.1-8-3.3-10.4c-2.2-2.4-5.7-3.6-10.4-3.6
			H307.4z"/>
	</g>
</g>
</svg>
